<svg aria-hidden="true" style="position: absolute; width: 0; height: 0; overflow: hidden;" version="1.1" xmlns="http://www.w3.org/2000/svg" xmlns:xlink="http://www.w3.org/1999/xlink">
<defs>
<symbol id="icon-arrow-down" viewBox="0 0 60 32">
<path fill="#686565" d="M59.45 0.542c-0.386-0.382-0.917-0.617-1.503-0.617s-1.117 0.236-1.503 0.618l-26.416 26.39-26.484-26.39c-0.385-0.385-0.916-0.623-1.503-0.623-1.174 0-2.125 0.952-2.125 2.125 0 0.587 0.238 1.118 0.623 1.503v0l27.917 27.833c0.373 0.384 0.894 0.621 1.471 0.621 0.011 0 0.022-0 0.033-0l-0.002 0c0.586-0.001 1.117-0.238 1.503-0.621l-0 0 27.917-27.833c0.417-0.382 0.678-0.929 0.678-1.537 0-0.573-0.231-1.092-0.606-1.468l0 0z"></path>
</symbol>
<symbol id="icon-Icon" viewBox="0 0 32 32">
<path d="M31.696 30.368l-7.776-7.776c2.067-2.374 3.326-5.497 3.326-8.915 0-7.516-6.093-13.61-13.61-13.61s-13.61 6.093-13.61 13.61c0 7.516 6.093 13.61 13.61 13.61 3.429 0 6.562-1.268 8.955-3.361l-0.016 0.014 7.776 7.776c0.173 0.172 0.409 0.279 0.671 0.283h0.001c0.003 0 0.006 0 0.009 0 0.261 0 0.496-0.109 0.663-0.283l0-0c0.171-0.173 0.276-0.411 0.276-0.674s-0.105-0.5-0.276-0.674l0 0zM1.904 13.645c0.005-6.474 5.254-11.72 11.728-11.72 6.477 0 11.728 5.251 11.728 11.728s-5.251 11.728-11.728 11.728v0c-6.477-0.007-11.725-5.258-11.728-11.736v-0z"></path>
</symbol>
<symbol id="icon-arrow-right" viewBox="0 0 64 32">
<path d="M63.75 14.962l-14.573-14.531c-0.269-0.312-0.664-0.508-1.106-0.508-0.363 0-0.695 0.133-0.95 0.353l0.002-0.002c-0.317 0.264-0.518 0.66-0.518 1.102 0 0.363 0.135 0.695 0.358 0.948l-0.001-0.002c0.043 0.063 0.097 0.115 0.158 0.156l0.002 0.001 12.102 12.063h-57.779c-0.728 0.087-1.287 0.7-1.287 1.444s0.559 1.358 1.28 1.444l0.007 0.001h57.779l-12.102 12.047c-0.317 0.265-0.518 0.661-0.518 1.104 0 0.364 0.135 0.696 0.359 0.949l-0.001-0.002c0.269 0.311 0.665 0.507 1.106 0.507 0.363 0 0.695-0.132 0.95-0.351l-0.002 0.002c0.064-0.048 0.096-0.103 0.16-0.157l14.573-14.531c0.262-0.26 0.425-0.62 0.425-1.018s-0.162-0.758-0.424-1.017l-0-0z"></path>
</symbol>
<symbol id="icon-arrow-left" viewBox="0 0 64 32">
<path d="M0.389 14.992l14.543-14.464c0.268-0.324 0.671-0.529 1.121-0.529 0.802 0 1.453 0.65 1.453 1.453 0 0.371-0.139 0.709-0.367 0.965l0.001-0.001q-0.072 0.072-0.16 0.144l-12.054 12.016h57.57c0.8 0 1.448 0.648 1.448 1.448s-0.648 1.448-1.448 1.448h-57.568l12.054 11.984c0.31 0.266 0.506 0.658 0.506 1.096 0 0.358-0.131 0.686-0.347 0.938l0.002-0.002c-0.268 0.313-0.663 0.511-1.104 0.511-0.362 0-0.693-0.133-0.947-0.352l0.002 0.002c-0.060-0.047-0.113-0.1-0.159-0.158l-0.002-0.002-14.543-14.464c-0.259-0.26-0.42-0.619-0.42-1.016s0.16-0.756 0.42-1.016l-0 0z"></path>
</symbol>
<symbol id="icon-avatar" viewBox="0 0 32 32">
<path d="M15.884 17.242h0.212c1.942-0.033 3.512-0.716 4.672-2.021 2.551-2.876 2.127-7.806 2.081-8.277-0.166-3.532-1.836-5.222-3.214-6.010-1.027-0.59-2.227-0.908-3.565-0.934h-0.113c-0.736 0-2.18 0.119-3.565 0.908-1.392 0.789-3.088 2.478-3.254 6.037-0.046 0.471-0.47 5.401 2.081 8.277 1.153 1.305 2.724 1.988 4.665 2.021zM10.907 7.11c0-0.020 0.007-0.040 0.007-0.053 0.219-4.751 3.592-5.262 5.036-5.262h0.080c1.789 0.040 4.831 0.769 5.036 5.262 0 0.020 0 0.040 0.007 0.053 0.007 0.046 0.471 4.552-1.637 6.925-0.835 0.941-1.948 1.405-3.413 1.418h-0.066c-1.458-0.013-2.578-0.477-3.406-1.418-2.101-2.359-1.65-6.885-1.643-6.925z"></path>
<path d="M29.608 25.42v-0.020c0-0.053-0.007-0.106-0.007-0.166-0.040-1.312-0.126-4.38-3.002-5.361-0.020-0.007-0.046-0.013-0.066-0.020-2.989-0.762-5.474-2.485-5.5-2.505-0.404-0.285-0.961-0.186-1.246 0.219s-0.186 0.961 0.219 1.246c0.113 0.080 2.75 1.915 6.050 2.763 1.544 0.55 1.716 2.2 1.763 3.711 0 0.060 0 0.113 0.007 0.166 0.007 0.596-0.033 1.517-0.139 2.048-1.073 0.61-5.281 2.717-11.683 2.717-6.375 0-10.609-2.114-11.689-2.724-0.106-0.53-0.152-1.451-0.139-2.048 0-0.053 0.007-0.106 0.007-0.166 0.046-1.511 0.219-3.161 1.763-3.711 3.3-0.848 5.937-2.69 6.050-2.763 0.404-0.285 0.504-0.842 0.219-1.246s-0.842-0.504-1.246-0.219c-0.027 0.020-2.498 1.743-5.5 2.505-0.027 0.007-0.046 0.013-0.066 0.020-2.876 0.987-2.962 4.056-3.002 5.361 0 0.060 0 0.113-0.007 0.166v0.020c-0.007 0.345-0.013 2.114 0.338 3.002 0.066 0.172 0.186 0.318 0.345 0.417 0.199 0.133 4.963 3.168 12.935 3.168s12.736-3.042 12.935-3.168c0.152-0.099 0.278-0.245 0.345-0.417 0.331-0.881 0.325-2.651 0.318-2.995z"></path>
</symbol>
<symbol id="icon-bag" viewBox="0 0 32 32">
<path d="M27.699 27.638l-1.702-18.728c-0.048-0.516-0.48-0.91-0.998-0.91h-3v-2c0-1.608-0.622-3.118-1.752-4.248s-2.64-1.752-4.248-1.752c-3.308 0-6 2.692-6 6v2h-3c-0.518 0-0.95 0.394-0.996 0.91l-1.702 18.728c-0.102 1.116 0.274 2.232 1.030 3.060s1.832 1.302 2.954 1.302h15.43c1.122 0 2.198-0.474 2.954-1.302s1.13-1.944 1.030-3.060zM11.999 6c0-2.206 1.794-4 4-4 1.074 0 2.080 0.414 2.834 1.166s1.166 1.76 1.166 2.834v2h-8v-2zM25.191 29.35c-0.384 0.418-0.908 0.65-1.478 0.65h-15.428c-0.568 0-1.094-0.232-1.476-0.652-0.384-0.42-0.566-0.962-0.514-1.53l1.618-17.818h2.086v3c0 0.552 0.448 1 1 1s1-0.448 1-1v-3h8v3c0 0.552 0.448 1 1 1s1-0.448 1-1v-3h2.086l1.62 17.82c0.052 0.566-0.13 1.11-0.514 1.53z"></path>
</symbol>
<symbol id="icon-eye" viewBox="0 0 32 32">
<path d="M31.761 15.375c-0.286-0.319-7.156-7.812-15.761-7.812s-15.475 7.494-15.761 7.812c-0.148 0.165-0.239 0.385-0.239 0.625s0.091 0.46 0.24 0.626l-0.001-0.001c0.286 0.319 7.156 7.812 15.761 7.812s15.475-7.494 15.761-7.812c0.148-0.165 0.239-0.385 0.239-0.625s-0.091-0.46-0.24-0.626l0.001 0.001zM16 22.563c-3.618 0-6.563-2.944-6.563-6.563s2.944-6.563 6.563-6.563 6.563 2.944 6.563 6.563-2.944 6.563-6.563 6.563z"></path>
<path d="M16.938 14.125c0-0.943 0.468-1.773 1.18-2.283-0.639-0.327-1.352-0.529-2.118-0.529-2.585 0-4.688 2.103-4.688 4.688s2.103 4.688 4.688 4.688c2.314 0 4.229-1.69 4.608-3.897-1.888 0.608-3.67-0.82-3.67-2.665z"></path>
</symbol>
<symbol id="icon-cross" viewBox="0 0 32 32">
<path   d="M20.953 16l10.851-10.852c0.121-0.121 0.195-0.287 0.195-0.472s-0.075-0.351-0.195-0.472l-4.009-4.010c-0.121-0.121-0.288-0.195-0.472-0.195s-0.351 0.075-0.472 0.195v0l-10.852 10.852-10.852-10.852c-0.25-0.25-0.693-0.25-0.943 0l-4.009 4.010c-0.121 0.121-0.195 0.287-0.195 0.472s0.075 0.351 0.195 0.472l10.852 10.852-10.852 10.852c-0.121 0.121-0.195 0.287-0.195 0.472s0.075 0.351 0.195 0.472l4.009 4.010c0.121 0.121 0.287 0.195 0.472 0.195s0.351-0.075 0.472-0.195l10.852-10.852 10.852 10.852c0.121 0.121 0.287 0.195 0.472 0.195s0.351-0.075 0.472-0.195l4.009-4.010c0.121-0.121 0.195-0.287 0.195-0.472s-0.075-0.351-0.195-0.472l-10.852-10.852z"></path>
</symbol>
<symbol id="icon-facebook" viewBox="0 0 32 32">
<path   d="M25.595 6.376h3.506v-6.106c-0.605-0.083-2.685-0.27-5.107-0.27-5.054 0-8.517 3.179-8.517 9.022v5.378h-5.578v6.826h5.578v17.174h6.838v-17.173h5.352l0.85-6.826h-6.203v-4.702c0.002-1.973 0.533-3.323 3.282-3.323z"></path>
</symbol>
<symbol id="icon-instagram" viewBox="0 0 32 32">
<path   d="M31.969 9.408c-0.075-1.7-0.35-2.869-0.744-3.882-0.406-1.075-1.031-2.038-1.85-2.838-0.8-0.813-1.769-1.444-2.832-1.844-1.019-0.394-2.182-0.669-3.882-0.744-1.713-0.081-2.257-0.1-6.601-0.1s-4.888 0.019-6.595 0.094c-1.7 0.075-2.869 0.35-3.882 0.744-1.075 0.406-2.038 1.031-2.838 1.851-0.813 0.8-1.444 1.769-1.844 2.832-0.394 1.019-0.669 2.182-0.744 3.882-0.081 1.713-0.1 2.257-0.1 6.601s0.019 4.888 0.094 6.595c0.075 1.7 0.35 2.869 0.744 3.882 0.406 1.075 1.038 2.038 1.85 2.838 0.8 0.813 1.769 1.444 2.832 1.844 1.019 0.394 2.182 0.669 3.882 0.744 1.706 0.075 2.25 0.094 6.595 0.094s4.888-0.018 6.595-0.094c1.7-0.075 2.869-0.35 3.882-0.744 2.157-0.85 3.832-2.525 4.663-4.627l0.019-0.055c0.394-1.019 0.669-2.182 0.744-3.882 0.075-1.707 0.094-2.25 0.094-6.595s-0.006-4.888-0.081-6.595zM29.087 22.473c-0.069 1.563-0.331 2.407-0.55 2.969-0.538 1.394-1.644 2.5-3.038 3.038-0.563 0.219-1.413 0.481-2.969 0.55-1.688 0.075-2.194 0.094-6.464 0.094s-4.782-0.018-6.464-0.094c-1.563-0.069-2.407-0.331-2.969-0.55-0.694-0.256-1.325-0.663-1.838-1.194-0.531-0.519-0.938-1.144-1.194-1.838-0.219-0.563-0.481-1.413-0.55-2.969-0.075-1.688-0.094-2.194-0.094-6.464s0.018-4.782 0.094-6.464c0.069-1.563 0.331-2.407 0.55-2.969 0.256-0.694 0.663-1.325 1.2-1.838 0.519-0.531 1.144-0.938 1.838-1.194 0.563-0.219 1.413-0.481 2.969-0.55 1.688-0.075 2.194-0.094 6.464-0.094 4.276 0 4.782 0.019 6.464 0.094 1.563 0.069 2.407 0.331 2.969 0.55 0.694 0.256 1.325 0.662 1.838 1.194 0.531 0.519 0.938 1.144 1.194 1.838 0.219 0.563 0.481 1.413 0.55 2.969 0.075 1.688 0.094 2.194 0.094 6.464s-0.019 4.77-0.094 6.458z"></path>
<path  d="M16.059 7.783c-4.538 0-8.22 3.682-8.22 8.22s3.682 8.22 8.22 8.22c4.538 0 8.22-3.682 8.22-8.22s-3.682-8.22-8.22-8.22zM16.059 21.335c-2.944 0-5.332-2.388-5.332-5.332s2.388-5.332 5.332-5.332c2.944 0 5.332 2.388 5.332 5.332s-2.388 5.332-5.332 5.332zM26.524 7.458c0 1.060-0.859 1.919-1.919 1.919s-1.919-0.859-1.919-1.919c0-1.060 0.859-1.919 1.919-1.919s1.919 0.859 1.919 1.919z"></path>
</symbol>
<symbol id="icon-menu" viewBox="0 0 32 32">
<path fill="#fff" style="fill: var(--color1, #fff)" d="M0 23.111h32v3.556h-32zM0 14.222h32v3.556h-32zM0 5.333h32v3.556h-32z"></path>
</symbol>
<symbol id="icon-twitter" viewBox="0 0 32 32">
<path   d="M32 6.078c-1.19 0.522-2.458 0.868-3.78 1.036 1.36-0.812 2.398-2.088 2.886-3.626-1.268 0.756-2.668 1.29-4.16 1.588-1.204-1.282-2.92-2.076-4.792-2.076-3.632 0-6.556 2.948-6.556 6.562 0 0.52 0.044 1.020 0.152 1.496-5.454-0.266-10.28-2.88-13.522-6.862-0.566 0.982-0.898 2.106-0.898 3.316 0 2.272 1.17 4.286 2.914 5.452-1.054-0.020-2.088-0.326-2.964-0.808v0.072c0 3.188 2.274 5.836 5.256 6.446-0.534 0.146-1.116 0.216-1.72 0.216-0.42 0-0.844-0.024-1.242-0.112 0.85 2.598 3.262 4.508 6.13 4.57-2.232 1.746-5.066 2.798-8.134 2.798-0.538 0-1.054-0.024-1.57-0.090 2.906 1.874 6.35 2.944 10.064 2.944 12.072 0 18.672-10 18.672-18.668 0-0.29-0.010-0.57-0.024-0.848 1.302-0.924 2.396-2.078 3.288-3.406z"></path>
</symbol>
<symbol id="icon-pinterest" viewBox="0 0 32 32">
<path d="M16 0c-8.836 0-16 7.163-16 16s7.164 16 16 16 16-7.163 16-16-7.164-16-16-16zM17.841 21.314c-1.48 0-2.872-0.8-3.349-1.709 0 0-0.796 3.157-0.963 3.767-0.594 2.154-2.339 4.309-2.475 4.485-0.095 0.123-0.304 0.084-0.325-0.079-0.037-0.274-0.483-2.992 0.042-5.208 0.262-1.113 1.762-7.469 1.762-7.469s-0.437-0.875-0.437-2.169c0-2.031 1.177-3.548 2.643-3.548 1.246 0 1.848 0.936 1.848 2.058 0 1.253-0.797 3.127-1.209 4.863-0.344 1.454 0.728 2.64 2.162 2.64 2.597 0 4.345-3.335 4.345-7.287 0-3.003-2.022-5.252-5.702-5.252-4.157 0-6.749 3.1-6.749 6.564 0 1.194 0.353 2.037 0.905 2.688 0.253 0.3 0.289 0.42 0.197 0.764-0.066 0.252-0.216 0.859-0.28 1.099-0.091 0.348-0.372 0.471-0.687 0.343-1.914-0.781-2.806-2.879-2.806-5.236 0-3.893 3.283-8.562 9.795-8.562 5.233 0 8.677 3.786 8.677 7.852 0 5.378-2.989 9.395-7.395 9.395z"></path>
</symbol>
</defs>
</svg>
